Fungal-Grow 400 Thickness 1000.ufo
<glyph name="two" format="1">
  <advance width="1303"/>
  <unicode hex="0032"/>
  <outline>
    <contour>
      <point x="393" y="170" type="qcurve"/>
      <point x="1098" y="170" type="line"/>
      <point x="1098" y="0" type="line"/>
      <point x="150" y="0" type="line"/>
      <point x="150" y="170" type="line"/>
      <point x="265" y="289"/>
      <point x="662" y="690"/>
      <point x="713" y="748" type="qcurve" smooth="yes"/>
      <point x="810" y="857"/>
      <point x="887" y="1008"/>
      <point x="887" y="1081" type="qcurve" smooth="yes"/>
      <point x="887" y="1200"/>
      <point x="720" y="1350"/>
      <point x="586" y="1350" type="qcurve" smooth="yes"/>
      <point x="491" y="1350"/>
      <point x="280" y="1284"/>
      <point x="160" y="1217" type="qcurve"/>
      <point x="160" y="1421" type="line"/>
      <point x="282" y="1470"/>
      <point x="494" y="1520"/>
      <point x="582" y="1520" type="qcurve" smooth="yes"/>
      <point x="814" y="1520"/>
      <point x="1090" y="1288"/>
      <point x="1090" y="1094" type="qcurve" smooth="yes"/>
      <point x="1090" y="1002"/>
      <point x="1021" y="837"/>
      <point x="930" y="725" type="qcurve"/>
      <point x="905" y="696"/>
      <point x="637" y="419"/>
    </contour>
    <component base="blob1" xScale="0" xyScale="1.2886" yScale="0" yxScale="-1.2886" xOffset="-45" yOffset="1287"/>
    <component base="blob2" xScale="0" xyScale="1" yScale="0" yxScale="-1" xOffset="-456" yOffset="995"/>
    <component base="blob3" xScale="0" xyScale="1" yScale="0" yxScale="-1" xOffset="-899" yOffset="839"/>
    <component base="blob4" xScale="0" xyScale="0.8783" yScale="0" yxScale="-0.8783" xOffset="-1350" yOffset="1010"/>
    <component base="blob5" xScale="0" xyScale="1" yScale="0" yxScale="-1" xOffset="-1655" yOffset="1372"/>
    <component base="blob6" xScale="0" xyScale="1.1539" yScale="0" yxScale="-1.1539" xOffset="-1463" yOffset="1880"/>
    <component base="blob7" xScale="0" xyScale="0.9753" yScale="0" yxScale="-0.9753" xOffset="-1698" yOffset="2335"/>
    <component base="blob8" xScale="0" xyScale="0.7047" yScale="0" yxScale="-0.7047" xOffset="-2080" yOffset="2516"/>
    <component base="blob9" xScale="0" xyScale="0.4869" yScale="0" yxScale="-0.4869" xOffset="-2351" yOffset="2479"/>
    <component base="blob2" xScale="0" xyScale="1" yScale="0" yxScale="-1" xOffset="447" yOffset="1280"/>
    <component base="blob3" xScale="0" xyScale="1" yScale="0" yxScale="-1" xOffset="815" yOffset="1052"/>
    <component base="blob4" xScale="0" xyScale="0.8783" yScale="0" yxScale="-0.8783" xOffset="1064" yOffset="656"/>
    <component base="blob5" xScale="0" xyScale="1" yScale="0" yxScale="-1" xOffset="1507" yOffset="783"/>
    <component base="blob6" xScale="0" xyScale="0.8708" yScale="0" yxScale="-0.8708" xOffset="1849" yOffset="1112"/>
    <component base="blob7" xScale="0" xyScale="0.9753" yScale="0" yxScale="-0.9753" xOffset="1807" yOffset="1544"/>
    <component base="blob8" xScale="0" xyScale="0.7047" yScale="0" yxScale="-0.7047" xOffset="1493" yOffset="1808"/>
    <component base="blob9" xScale="0" xyScale="0.4869" yScale="0" yxScale="-0.4869" xOffset="1245" yOffset="1738"/>
    <contour>
      <point x="651" y="1520" type="move" name="above"/>
    </contour>
    <contour>
      <point x="651" y="0" type="move" name="below"/>
    </contour>
  </outline>
</glyph>
<glyph name="I" format="1">
  <advance width="604"/>
  <unicode hex="0049"/>
  <outline>
    <contour>
      <point x="201" y="1493" type="line"/>
      <point x="403" y="1493" type="line"/>
      <point x="403" y="0" type="line"/>
      <point x="201" y="0" type="line"/>
      <point x="201" y="1493" type="line"/>
    </contour>
    <component base="blob1" xScale="0" xyScale="1.2886" yScale="0" yxScale="1.2886" xOffset="234" yOffset="1642"/>
    <component base="blob2" xScale="0" xyScale="1" yScale="0" yxScale="1" xOffset="-225" yOffset="1984"/>
    <component base="blob3" xScale="0" xyScale="1" yScale="0" yxScale="1" xOffset="-364" yOffset="2395"/>
    <component base="blob4" xScale="0" xyScale="0.8783" yScale="0" yxScale="0.8783" xOffset="-299" yOffset="2819"/>
    <component base="blob5" xScale="0" xyScale="1.0354" yScale="0" yxScale="1.0354" xOffset="-159" yOffset="3266"/>
    <component base="blob6" xScale="0" xyScale="1.1539" yScale="0" yxScale="1.1539" xOffset="-108" yOffset="3783"/>
    <component base="blob7" xScale="0" xyScale="0.9753" yScale="0" yxScale="0.9753" xOffset="-286" yOffset="4204"/>
    <component base="blob8" xScale="0" xyScale="0.8782" yScale="0" yxScale="0.8782" xOffset="-657" yOffset="4487"/>
    <component base="blob9" xScale="0" xyScale="0.4869" yScale="0" yxScale="0.4869" xOffset="-955" yOffset="4473"/>
    <component base="blob1" xScale="0" xyScale="1.2886" yScale="0" yxScale="1.2886" xOffset="382" yOffset="1045"/>
    <component base="blob2" xScale="0" xyScale="1" yScale="0" yxScale="1" xOffset="135" yOffset="549"/>
    <component base="blob3" xScale="0" xyScale="1" yScale="0" yxScale="1" xOffset="37" yOffset="97"/>
    <component base="blob4" xScale="0" xyScale="1.0905" yScale="0" yxScale="1.0905" xOffset="219" yOffset="-406"/>
    <component base="blob4" xScale="0" xyScale="0.8783" yScale="0" yxScale="0.8783" xOffset="603" yOffset="-670"/>
    <component base="blob5" xScale="0" xyScale="0.9534" yScale="0" yxScale="0.9534" xOffset="854" yOffset="-1019"/>
    <component base="blob6" xScale="0" xyScale="0.9499" yScale="0" yxScale="0.9499" xOffset="1044" yOffset="-1409"/>
    <component base="blob7" xScale="0" xyScale="0.8051" yScale="0" yxScale="0.8051" xOffset="1005" yOffset="-1845"/>
    <component base="blob8" xScale="0" xyScale="0.8782" yScale="0" yxScale="0.8782" xOffset="684" yOffset="-2124"/>
    <component base="blob9" xScale="0" xyScale="0.4869" yScale="0" yxScale="0.4869" xOffset="381" yOffset="-2179"/>
    <contour>
      <point x="303" y="1520" type="move" name="above"/>
    </contour>
    <contour>
      <point x="303" y="0" type="move" name="below"/>
    </contour>
    <contour>
      <point x="303" y="0" type="move" name="cedilla"/>
    </contour>
    <contour>
      <point x="0" y="1520" type="move" name="half"/>
    </contour>
    <contour>
      <point x="344" y="0" type="move" name="ogonek"/>
    </contour>
  </outline>
</glyph>
<glyph name="V" format="1">
  <advance width="1401"/>
  <unicode hex="0056"/>
  <outline>
    <contour>
      <point x="586" y="0" type="line"/>
      <point x="16" y="1493" type="line"/>
      <point x="227" y="1493" type="line"/>
      <point x="700" y="236" type="line"/>
      <point x="1174" y="1493" type="line"/>
      <point x="1384" y="1493" type="line"/>
      <point x="815" y="0" type="line"/>
      <point x="586" y="0" type="line"/>
    </contour>
    <component base="blob1" xScale="0" xyScale="-1.2886" yScale="0" yxScale="1.2886" xOffset="1347" yOffset="1677"/>
    <component base="blob2" xScale="0" xyScale="-1" yScale="0" yxScale="1" xOffset="1637" yOffset="2175"/>
    <component base="blob3" xScale="0" xyScale="-1" yScale="0" yxScale="1" xOffset="2030" yOffset="2441"/>
    <component base="blob4" xScale="0" xyScale="-0.8783" yScale="0" yxScale="0.8783" xOffset="2420" yOffset="2702"/>
    <component base="blob5" xScale="0" xyScale="-1" yScale="0" yxScale="1" xOffset="2859" yOffset="2713"/>
    <component base="blob6" xScale="0" xyScale="-1.1539" yScale="0" yxScale="1.1539" xOffset="3400" yOffset="2841"/>
    <component base="blob7" xScale="0" xyScale="-0.9753" yScale="0" yxScale="0.9753" xOffset="3721" yOffset="3279"/>
    <component base="blob8" xScale="0" xyScale="-0.7047" yScale="0" yxScale="0.7047" xOffset="4011" yOffset="3555"/>
    <component base="blob9" xScale="0" xyScale="-0.4869" yScale="0" yxScale="0.4869" xOffset="4237" yOffset="3694"/>
    <component base="blob1" xScale="0" xyScale="-1.2886" yScale="0" yxScale="1.2886" xOffset="413" yOffset="158"/>
    <component base="blob2" xScale="0" xyScale="-1" yScale="0" yxScale="1" xOffset="-85" yOffset="-124"/>
    <component base="blob3" xScale="0" xyScale="-1" yScale="0" yxScale="1" xOffset="-304" yOffset="-550"/>
    <component base="blob4" xScale="0" xyScale="-0.8783" yScale="0" yxScale="0.8783" xOffset="-361" yOffset="-1004"/>
    <component base="blob5" xScale="0" xyScale="-1" yScale="0" yxScale="1" xOffset="-507" yOffset="-1445"/>
    <component base="blob6" xScale="0" xyScale="-1.1539" yScale="0" yxScale="1.1539" xOffset="-943" yOffset="-1727"/>
    <component base="blob7" xScale="0" xyScale="-0.9753" yScale="0" yxScale="0.9753" xOffset="-1478" yOffset="-1794"/>
    <component base="blob8" xScale="0" xyScale="-0.7047" yScale="0" yxScale="0.7047" xOffset="-1882" yOffset="-1972"/>
    <component base="blob9" xScale="0" xyScale="-0.4869" yScale="0" yxScale="0.4869" xOffset="-1976" yOffset="-2260"/>
    <component base="blob2" xScale="0" xyScale="-1" yScale="0" yxScale="1" xOffset="1147" yOffset="1166"/>
    <component base="blob2" xScale="0" xyScale="-1" yScale="0" yxScale="1" xOffset="506" yOffset="636"/>
    <component base="blob3" xScale="0" xyScale="-0.7808" yScale="0" yxScale="0.7808" xOffset="364" yOffset="992"/>
    <component base="blob3" xScale="0" xyScale="-0.8526" yScale="0" yxScale="0.8526" xOffset="1006" yOffset="745"/>
    <component base="blob4" xScale="0" xyScale="-0.8783" yScale="0" yxScale="0.8783" xOffset="814" yOffset="406"/>
    <component base="blob5" xScale="0" xyScale="-1" yScale="0" yxScale="1" xOffset="753" yOffset="100"/>
    <component base="blob4" xScale="0" xyScale="-0.8783" yScale="0" yxScale="0.8783" xOffset="337" yOffset="1350"/>
    <component base="blob5" xScale="0" xyScale="-1" yScale="0" yxScale="1" xOffset="606" yOffset="1685"/>
    <component base="blob6" xScale="0" xyScale="-0.7606" yScale="0" yxScale="0.7606" xOffset="977" yOffset="1774"/>
    <contour>
      <point x="700" y="1520" type="move" name="above"/>
    </contour>
    <contour>
      <point x="700" y="0" type="move" name="below"/>
    </contour>
    <contour>
      <point x="0" y="1520" type="move" name="half"/>
    </contour>
  </outline>
</glyph>
<glyph name="j" format="1">
  <advance width="569"/>
  <unicode hex="006A"/>
  <outline>
    <contour>
      <point x="193" y="1120" type="line"/>
      <point x="377" y="1120" type="line"/>
      <point x="377" y="-20" type="line" smooth="yes"/>
      <point x="377" y="-305.333"/>
      <point x="274.333" y="-426"/>
      <point x="33" y="-426" type="curve" smooth="yes"/>
      <point x="-37" y="-426" type="line"/>
      <point x="-37" y="-270" type="line"/>
      <point x="12" y="-270" type="line" smooth="yes"/>
      <point x="152" y="-270"/>
      <point x="193" y="-224"/>
      <point x="193" y="-20" type="curve" smooth="yes"/>
      <point x="193" y="1120" type="line"/>
    </contour>
    <contour>
      <point x="193" y="1556" type="line"/>
      <point x="377" y="1556" type="line"/>
      <point x="377" y="1323" type="line"/>
      <point x="193" y="1323" type="line"/>
      <point x="193" y="1556" type="line"/>
    </contour>
    <component base="blob1" xScale="1.2886" yScale="-1.2886" xOffset="138" yOffset="797"/>
    <component base="blob2" yScale="-1" xOffset="12" yOffset="253"/>
    <component base="blob3" yScale="-1" xOffset="-56" yOffset="-210"/>
    <component base="blob4" xScale="0.8783" yScale="-0.8783" xOffset="-169" yOffset="-547"/>
    <component base="blob5" yScale="-1" xOffset="-460" yOffset="-884"/>
    <component base="blob6" xScale="1.1539" yScale="-1.1539" xOffset="-768" yOffset="-1274"/>
    <component base="blob7" xScale="0.9753" yScale="-0.9753" xOffset="-1159" yOffset="-1240"/>
    <component base="blob8" xScale="0.7047" yScale="-0.7047" xOffset="-1526" yOffset="-1210"/>
    <component base="blob9" xScale="0.4869" yScale="-0.4869" xOffset="-1665" yOffset="-1007"/>
    <contour>
      <point x="287" y="1583" type="move" name="above"/>
    </contour>
    <contour>
      <point x="287" y="-430" type="move" name="below"/>
    </contour>
    <contour>
      <point x="0" y="1520" type="move" name="half"/>
    </contour>
  </outline>
</glyph>
<glyph name="v" format="1">
  <advance width="1212"/>
  <unicode hex="0076"/>
  <outline>
    <contour>
      <point x="61" y="1120" type="line"/>
      <point x="256" y="1120" type="line"/>
      <point x="606" y="180" type="line"/>
      <point x="956" y="1120" type="line"/>
      <point x="1151" y="1120" type="line"/>
      <point x="731" y="0" type="line"/>
      <point x="481" y="0" type="line"/>
      <point x="61" y="1120" type="line"/>
    </contour>
    <component base="blob1" xScale="0" xyScale="1.2886" yScale="0" yxScale="1.2886" xOffset="713" yOffset="704"/>
    <component base="blob2" xScale="0" xyScale="1" yScale="0" yxScale="1" xOffset="1065" yOffset="1003"/>
    <component base="blob3" xScale="0" xyScale="1" yScale="0" yxScale="1" xOffset="1358" yOffset="1331"/>
    <component base="blob4" xScale="0" xyScale="0.8783" yScale="0" yxScale="0.8783" xOffset="1478" yOffset="1740"/>
    <component base="blob5" xScale="0" xyScale="1" yScale="0" yxScale="1" xOffset="1483" yOffset="2194"/>
    <component base="blob6" xScale="0" xyScale="1.1539" yScale="0" yxScale="1.1539" xOffset="1037" yOffset="2525"/>
    <component base="blob7" xScale="0" xyScale="0.9753" yScale="0" yxScale="0.9753" xOffset="589" yOffset="2686"/>
    <component base="blob8" xScale="0" xyScale="0.7047" yScale="0" yxScale="0.7047" xOffset="260" yOffset="2524"/>
    <component base="blob9" xScale="0" xyScale="0.4869" yScale="0" yxScale="0.4869" xOffset="85" yOffset="2322"/>
    <component base="blob2" xScale="0" xyScale="1" yScale="0" yxScale="1" xOffset="539" yOffset="200"/>
    <component base="blob3" xScale="0" xyScale="1" yScale="0" yxScale="1" xOffset="116" yOffset="-10"/>
    <component base="blob4" xScale="0" xyScale="0.8783" yScale="0" yxScale="0.8783" xOffset="-317" yOffset="-12"/>
    <component base="blob5" xScale="0" xyScale="1" yScale="0" yxScale="1" xOffset="-661" yOffset="-310"/>
    <component base="blob6" xScale="0" xyScale="1.1539" yScale="0" yxScale="1.1539" xOffset="-848" yOffset="-776"/>
    <component base="blob7" xScale="0" xyScale="0.9753" yScale="0" yxScale="0.9753" xOffset="-1087" yOffset="-1200"/>
    <component base="blob8" xScale="0" xyScale="0.7047" yScale="0" yxScale="0.7047" xOffset="-1403" yOffset="-1465"/>
    <component base="blob9" xScale="0" xyScale="0.4869" yScale="0" yxScale="0.4869" xOffset="-1681" yOffset="-1369"/>
    <contour>
      <point x="606" y="1147" type="move" name="above"/>
    </contour>
    <contour>
      <point x="606" y="0" type="move" name="below"/>
    </contour>
    <contour>
      <point x="0" y="1520" type="move" name="half"/>
    </contour>
  </outline>
</glyph>
<glyph name="uni0245" format="1">
  <advance width="1401"/>
  <unicode hex="0245"/>
  <outline>
    <component base="Lambda"/>
    <contour>
      <point x="700" y="1520" type="move" name="above"/>
    </contour>
    <contour>
      <point x="700" y="0" type="move" name="below"/>
    </contour>
  </outline>
</glyph>
<glyph name="uni028C" format="1">
  <advance width="1212"/>
  <unicode hex="028C"/>
  <outline>
    <contour>
      <point x="61" y="0" type="line"/>
      <point x="481" y="1120" type="line"/>
      <point x="731" y="1120" type="line"/>
      <point x="1151" y="0" type="line"/>
      <point x="956" y="0" type="line"/>
      <point x="606" y="940" type="line"/>
      <point x="256" y="0" type="line"/>
    </contour>
    <contour>
      <point x="606" y="1147" type="move" name="above"/>
    </contour>
    <contour>
      <point x="606" y="0" type="move" name="below"/>
    </contour>
  </outline>
</glyph>
<glyph name="uni02AB" format="1">
  <advance width="1340"/>
  <unicode hex="02AB"/>
  <outline>
    <contour>
      <point x="193" y="1556" type="line"/>
      <point x="377" y="1556" type="line"/>
      <point x="377" y="1120" type="line"/>
      <point x="1250" y="1120" type="line"/>
      <point x="1250" y="952" type="line"/>
      <point x="558" y="147" type="line"/>
      <point x="1250" y="147" type="line"/>
      <point x="1250" y="0" type="line"/>
      <point x="377" y="0" type="line"/>
      <point x="351" y="0" type="line"/>
      <point x="193" y="0" type="line"/>
    </contour>
    <contour>
      <point x="377" y="973" type="line"/>
      <point x="377" y="198" type="line"/>
      <point x="1043" y="973" type="line"/>
    </contour>
    <contour>
      <point x="278" y="1520" type="move" name="above"/>
    </contour>
    <contour>
      <point x="278" y="0" type="move" name="below"/>
    </contour>
  </outline>
</glyph>
<glyph name="uni0314" format="1">
  <advance width="0"/>
  <unicode hex="0314"/>
  <outline>
    <contour>
      <point x="-624" y="1475" type="qcurve" smooth="yes"/>
      <point x="-624" y="1729" type="line"/>
      <point x="-383" y="1729" type="line"/>
      <point x="-383" y="1475" type="line"/>
      <point x="-494.5" y="1475" type="line" smooth="yes"/>
      <point x="-494.5" y="1338"/>
      <point x="-382.5" y="1341" type="qcurve" smooth="yes"/>
      <point x="-382.5" y="1218" type="line"/>
      <point x="-624" y="1218"/>
    </contour>
    <contour>
      <point x="-512" y="1138" type="move" name="_above"/>
    </contour>
  </outline>
</glyph>
<glyph name="uni0340" format="1">
  <advance width="0"/>
  <unicode hex="0340"/>
  <outline>
    <component base="grave" xOffset="-1026"/>
    <contour>
      <point x="-512" y="1147" type="move" name="_above"/>
    </contour>
    <contour>
      <point x="-512" y="1147" type="move" name="_above-mark"/>
    </contour>
    <contour>
      <point x="-512" y="1640" type="move" name="above-mark"/>
    </contour>
  </outline>
</glyph>
<glyph name="uni03F4" format="1">
  <advance width="1612"/>
  <unicode hex="03F4"/>
  <outline>
    <component base="uni019F"/>
    <contour>
      <point x="807" y="1520" type="move" name="above"/>
    </contour>
    <contour>
      <point x="807" y="0" type="move" name="below"/>
    </contour>
  </outline>
</glyph>
<glyph name="uni0427" format="1">
  <advance width="1404"/>
  <unicode hex="0427"/>
  <outline>
    <contour>
      <point x="1000" y="0" type="line"/>
      <point x="1000" y="612" type="line"/>
      <point x="583" y="612" type="line" smooth="yes"/>
      <point x="396.736" y="612"/>
      <point x="175" y="845"/>
      <point x="175" y="1083" type="qcurve" smooth="yes"/>
      <point x="175" y="1493" type="line"/>
      <point x="376" y="1493" type="line"/>
      <point x="376" y="1099" type="line" smooth="yes"/>
      <point x="376" y="940"/>
      <point x="500" y="782"/>
      <point x="624" y="782" type="qcurve" smooth="yes"/>
      <point x="1000" y="782" type="line"/>
      <point x="1000" y="1493" type="line"/>
      <point x="1203" y="1493" type="line"/>
      <point x="1203" y="0" type="line"/>
    </contour>
    <contour>
      <point x="690" y="1520" type="move" name="above"/>
    </contour>
  </outline>
</glyph>
<glyph name="uni05BD" format="1">
  <advance width="0"/>
  <unicode hex="05BD"/>
  <outline>
    <contour>
      <point x="580" y="-45" type="line"/>
      <point x="730" y="-45" type="line"/>
      <point x="730" y="-445" type="line"/>
      <point x="580" y="-445" type="line"/>
    </contour>
    <contour>
      <point x="655" y="0" type="move" name="_Ligature rtl-below"/>
    </contour>
    <contour>
      <point x="655" y="0" type="move" name="_rtl-below"/>
    </contour>
    <contour>
      <point x="655" y="0" type="move" name="_rtl-below-mark"/>
    </contour>
  </outline>
</glyph>
<glyph name="uni0692" format="1">
  <advance width="989"/>
  <unicode hex="0692"/>
  <outline>
    <component base="uni065A" xOffset="188" yOffset="-450"/>
    <component base="uni0631"/>
    <contour>
      <point x="700" y="1200" type="move" name="rtl-above"/>
    </contour>
    <contour>
      <point x="500" y="-500" type="move" name="rtl-below"/>
    </contour>
  </outline>
</glyph>
<glyph name="uni06C6" format="1">
  <advance width="989"/>
  <unicode hex="06C6"/>
  <outline>
    <component base="uni065A" xOffset="-12" yOffset="-450"/>
    <component base="uni0648"/>
    <contour>
      <point x="500" y="1250" type="move" name="rtl-above"/>
    </contour>
    <contour>
      <point x="500" y="-500" type="move" name="rtl-below"/>
    </contour>
  </outline>
</glyph>
<glyph name="uni06C7" format="1">
  <advance width="989"/>
  <unicode hex="06C7"/>
  <outline>
    <component base="uni064F" xOffset="-92" yOffset="-552"/>
    <component base="uni0648"/>
    <contour>
      <point x="500" y="1350" type="move" name="rtl-above"/>
    </contour>
    <contour>
      <point x="500" y="-500" type="move" name="rtl-below"/>
    </contour>
  </outline>
</glyph>
<glyph name="uni0EC8" format="1">
  <advance width="0"/>
  <unicode hex="0EC8"/>
  <outline>
    <contour>
      <point x="-750" y="1622" type="line"/>
      <point x="-570" y="1622" type="line"/>
      <point x="-570" y="1265" type="line"/>
      <point x="-750" y="1265" type="line"/>
    </contour>
    <contour>
      <point x="0" y="1120" type="move" name="_lao-above"/>
    </contour>
    <contour>
      <point x="-660" y="1120" type="move" name="_lao-above-mark"/>
    </contour>
  </outline>
</glyph>
<glyph name="uniFB64" format="1">
  <advance width="570"/>
  <unicode hex="FB64"/>
  <outline>
    <component base="uni066E.init"/>
    <component base="arabic_4dots" xOffset="99" yOffset="1100"/>
    <contour>
      <point x="299" y="1300" type="move" name="rtl-above"/>
    </contour>
    <contour>
      <point x="299" y="-100" type="move" name="rtl-below"/>
    </contour>
  </outline>
</glyph>
<glyph name="uniFBAA" format="1">
  <advance width="1430"/>
  <unicode hex="FBAA"/>
  <outline>
    <component base="uni06BE"/>
    <contour>
      <point x="850" y="1100" type="move" name="rtl-above"/>
    </contour>
    <contour>
      <point x="800" y="-150" type="move" name="rtl-below"/>
    </contour>
  </outline>
</glyph>
<glyph name="uniFEE6" format="1">
  <advance width="1559"/>
  <unicode hex="FEE6"/>
  <outline>
    <component base="uniFB9F"/>
    <component base="arabic_dot" xOffset="575" yOffset="550"/>
    <contour>
      <point x="650" y="750" type="move" name="rtl-above"/>
    </contour>
    <contour>
      <point x="750" y="-600" type="move" name="rtl-below"/>
    </contour>
  </outline>
</glyph>
<glyph name="uniFEF2" format="1">
  <advance width="1707"/>
  <unicode hex="FEF2"/>
  <outline>
    <component base="arabic_2dots" xOffset="500" yOffset="-500"/>
    <component base="uniFEF0"/>
    <contour>
      <point x="600" y="750" type="move" name="rtl-above"/>
    </contour>
    <contour>
      <point x="700" y="-550" type="move" name="rtl-below"/>
    </contour>
  </outline>
</glyph>
<glyph name="uni06A7.medi" format="1">
  <advance width="1036"/>
  <outline>
    <component base="uni066F.medi"/>
    <component base="arabic_dot" xOffset="443" yOffset="1000"/>
    <contour>
      <point x="518" y="1200" type="move" name="rtl-above"/>
    </contour>
    <contour>
      <point x="518" y="-150" type="move" name="rtl-below"/>
    </contour>
  </outline>
</glyph>
<glyph name="uni06B6.fina" format="1">
  <advance width="1551"/>
  <outline>
    <component base="uniFEDE"/>
    <component base="arabic_dot" xOffset="1130" yOffset="1800"/>
    <contour>
      <point x="1212" y="2100" type="move" name="rtl-above"/>
    </contour>
    <contour>
      <point x="700" y="-450" type="move" name="rtl-below"/>
    </contour>
  </outline>
</glyph>
<glyph name="uni07CA.fina" format="1">
  <advance width="570"/>
  <outline>
    <contour>
      <point x="193" y="0" type="line"/>
      <point x="193" y="1493" type="line"/>
      <point x="377" y="1493" type="line"/>
      <point x="377" y="147" type="line"/>
      <point x="590" y="147" type="line"/>
      <point x="590" y="0" type="line"/>
    </contour>
    <contour>
      <point x="285" y="1520" type="move" name="rtl-above"/>
    </contour>
    <contour>
      <point x="285" y="0" type="move" name="rtl-below"/>
    </contour>
  </outline>
</glyph>
<glyph name="uni07D3.fina" format="1">
  <advance width="897"/>
  <outline>
    <contour>
      <point x="193" y="0" type="line"/>
      <point x="193" y="1493" type="line"/>
      <point x="836" y="1493" type="line"/>
      <point x="836" y="1346" type="line"/>
      <point x="377" y="1346" type="line"/>
      <point x="377" y="881" type="line"/>
      <point x="836" y="881" type="line"/>
      <point x="836" y="735" type="line"/>
      <point x="377" y="735" type="line"/>
      <point x="377" y="147" type="line"/>
      <point x="917" y="147" type="line"/>
      <point x="917" y="0" type="line"/>
    </contour>
    <contour>
      <point x="531" y="1520" type="move" name="rtl-above"/>
    </contour>
    <contour>
      <point x="278" y="0" type="move" name="rtl-below"/>
    </contour>
  </outline>
</glyph>
